<svg width="101" height="50" viewBox="0 0 101 50" fill="#392A93" xmlns="http://www.w3.org/2000/svg">
<path d="M19.6363 0.0718377C19.4018 -0.0457234 19.1366 -0.0114587 18.8628 0.119881C17.1046 0.963288 15.8673 2.70266 14.0577 3.42855C12.4813 4.06089 11.369 5.66105 10.7206 7.00628C10.2695 7.94232 10.4127 9.20263 9.64947 9.90619C9.49319 10.0502 9.29251 10.142 9.03694 10.142C7.92123 10.142 2.34264 19.6527 1.22692 23.0094C0.111204 26.3661 0.669073 24.6877 0.111215 29.1633C0.00155004 30.0432 -0.0205352 30.8059 0.0168167 31.4614C0.150292 33.8041 1.66897 35.94 2.49052 38.1371L2.90051 39.2335C3.08646 39.6064 4.01623 40.688 6.24766 42.0307C7.23547 42.6251 8.11396 43.3876 8.83474 44.1338C10.2121 45.5596 10.2454 48.9565 12.0224 49.8312C13.3501 50.4848 13.9002 49.1294 13.6316 47.6707C13.597 47.4827 13.5536 47.2813 13.4998 47.0658C13.1358 45.6053 13.4894 43.5492 13.834 42.2337C13.9682 41.7216 14.1756 41.2311 14.4174 40.7605C17.5645 34.6369 19.6565 33.0389 20.1941 31.9606C20.4145 31.5186 20.4764 29.1356 20.5705 28.6505C20.6804 28.084 20.752 27.3381 20.752 26.3661C20.752 24.7263 21.0576 23.015 21.429 21.5692C21.9253 19.6366 21.3277 16.8435 22.9834 15.7365C23.7252 15.2406 24.3871 14.0349 24.8931 12.8044C25.5552 11.1944 24.8757 9.4618 24.0991 7.90417C23.6529 7.00905 25.0289 4.92043 25.7727 3.98801C26.1446 3.61504 26.3306 2.75721 24.0991 2.30964C21.3099 1.75019 20.752 0.631289 19.6363 0.0718377Z" fill="#392A93"/>
<path d="M47.16 37.9H44.26V35.44H42.54V37.9H39.6V35.98H37.9V39.36H47.16V39.94H48.84V35.94H47.16V37.9ZM50.1 25.12V26.32H41.46V25.12H50.1ZM41.46 28.7V27.54H50.1V28.7H41.46ZM54.94 32.68V31.26H41.46V30.04H51.96V23.78H46.12C46.38 23.34 46.66 22.86 46.86 22.36L44.68 22.16C44.58 22.62 44.38 23.24 44.18 23.78H39.62V35.16H52.32C52.1 37.54 51.86 38.52 51.56 38.82C51.42 38.98 51.24 39.04 50.94 39.04C50.64 39.04 49.94 39.02 49.18 38.94C49.42 39.38 49.58 40.06 49.62 40.54C50.54 40.58 51.36 40.58 51.82 40.52C52.34 40.48 52.74 40.34 53.08 39.94C53.6 39.4 53.9 37.94 54.18 34.46C54.22 34.24 54.24 33.76 54.24 33.76H41.46V32.68H54.94ZM63.46 28.38C63.46 30.66 63.26 33.92 61.48 36.28C61.84 36.5 62.38 37 62.64 37.3C64.32 35.18 64.8 32.3 64.92 29.88H66.54C66.38 34.08 66.22 35.62 65.92 35.98C65.8 36.2 65.64 36.24 65.42 36.24C65.18 36.24 64.72 36.24 64.18 36.18C64.38 36.6 64.54 37.24 64.56 37.7C65.22 37.72 65.82 37.72 66.2 37.66C66.68 37.6 66.98 37.44 67.3 37.02C67.76 36.4 67.94 34.48 68.16 29.04V28.34H64.94V26.42H68.26C68.08 26.68 67.92 26.92 67.74 27.14C68.12 27.38 68.76 27.86 69.04 28.14L69.2 27.92V28.76H72.38C71.96 29.24 71.46 29.72 71.02 30.04V31.32H68.54V32.8H71.02V35.84C71.02 36.04 70.96 36.1 70.72 36.1C70.5 36.1 69.76 36.1 68.96 36.08C69.2 36.52 69.44 37.18 69.52 37.62C70.64 37.62 71.4 37.6 71.94 37.34C72.48 37.1 72.6 36.62 72.6 35.86V32.8H75.12V31.32H72.6V30.46C73.42 29.76 74.26 28.88 74.92 28.04L73.9 27.28L73.6 27.36H69.56C69.84 26.9 70.08 26.42 70.32 25.9H75.14V24.36H70.96C71.18 23.78 71.4 23.16 71.54 22.56L69.98 22.12C69.64 23.58 69.08 25.04 68.4 26.18V24.86H66.38L66.48 24.84C66.3 24.14 65.88 23.06 65.5 22.24L63.88 22.54C64.18 23.26 64.5 24.18 64.68 24.86H61.82V26.42H63.46V28.38ZM61.26 25.32C60.78 24.5 59.82 23.22 59 22.26L57.56 23.02C58.34 24 59.3 25.4 59.76 26.24L61.26 25.32ZM61.12 31.66L60.84 31.7H59.24C60.28 30.34 61.6 28.34 62.36 27.2L61.14 26.7L60.88 26.82H57V28.32H59.82C59.06 29.48 58.1 30.86 57.72 31.26C57.38 31.64 57.08 31.78 56.76 31.86C56.94 32.2 57.28 33.04 57.38 33.46C57.56 33.3 58.08 33.16 58.58 33.16H60.08C59.52 36.06 58.32 38.18 56.62 39.36C56.98 39.62 57.6 40.24 57.84 40.64C58.78 39.9 59.6 38.92 60.26 37.62C61.82 39.86 64.24 40.26 68.14 40.26C70.38 40.26 72.88 40.2 74.82 40.08C74.92 39.6 75.14 38.76 75.42 38.36C73.3 38.56 70.26 38.66 68.16 38.66C64.56 38.66 62.16 38.34 60.94 36.08C61.38 34.88 61.72 33.52 61.94 31.98L61.12 31.66Z" fill="#392A93"/>
<path d="M38.989 9.618H37.036V8.628H42.076V9.618H40.123V15H38.989V9.618ZM44.5839 14.451H44.5569C44.4489 14.643 44.2749 14.802 44.0349 14.928C43.7949 15.048 43.5219 15.108 43.2159 15.108C43.0419 15.108 42.8589 15.084 42.6669 15.036C42.4809 14.994 42.3069 14.922 42.1449 14.82C41.9889 14.712 41.8569 14.574 41.7489 14.406C41.6469 14.232 41.5959 14.019 41.5959 13.767C41.5959 13.443 41.6859 13.185 41.8659 12.993C42.0519 12.801 42.2889 12.654 42.5769 12.552C42.8649 12.45 43.1829 12.384 43.5309 12.354C43.8849 12.318 44.2299 12.3 44.5659 12.3V12.192C44.5659 11.922 44.4669 11.724 44.2689 11.598C44.0769 11.466 43.8459 11.4 43.5759 11.4C43.3479 11.4 43.1289 11.448 42.9189 11.544C42.7089 11.64 42.5349 11.757 42.3969 11.895L41.8389 11.238C42.0849 11.01 42.3669 10.839 42.6849 10.725C43.0089 10.611 43.3359 10.554 43.6659 10.554C44.0499 10.554 44.3649 10.608 44.6109 10.716C44.8629 10.824 45.0609 10.965 45.2049 11.139C45.3489 11.313 45.4479 11.508 45.5019 11.724C45.5619 11.94 45.5919 12.156 45.5919 12.372V15H44.5839V14.451ZM44.5659 13.029H44.3229C44.1489 13.029 43.9659 13.038 43.7739 13.056C43.5819 13.068 43.4049 13.101 43.2429 13.155C43.0809 13.203 42.9459 13.275 42.8379 13.371C42.7299 13.461 42.6759 13.587 42.6759 13.749C42.6759 13.851 42.6969 13.938 42.7389 14.01C42.7869 14.076 42.8469 14.13 42.9189 14.172C42.9909 14.214 43.0719 14.244 43.1619 14.262C43.2519 14.28 43.3419 14.289 43.4319 14.289C43.8039 14.289 44.0859 14.19 44.2779 13.992C44.4699 13.794 44.5659 13.524 44.5659 13.182V13.029ZM46.8681 10.68H47.9481V15H46.8681V10.68ZM46.7151 9.213C46.7151 9.039 46.7781 8.889 46.9041 8.763C47.0361 8.631 47.2011 8.565 47.3991 8.565C47.5971 8.565 47.7621 8.628 47.8941 8.754C48.0321 8.874 48.1011 9.027 48.1011 9.213C48.1011 9.399 48.0321 9.555 47.8941 9.681C47.7621 9.801 47.5971 9.861 47.3991 9.861C47.2011 9.861 47.0361 9.798 46.9041 9.672C46.7781 9.54 46.7151 9.387 46.7151 9.213ZM48.6464 10.68H49.8164L50.7164 13.776H50.7344L51.6614 10.68H52.8134L53.7494 13.776H53.7674L54.6854 10.68H55.8104L54.3164 15H53.2184L52.2374 11.976H52.2194L51.2474 15H50.1494L48.6464 10.68ZM59.1738 14.451H59.1468C59.0388 14.643 58.8648 14.802 58.6248 14.928C58.3848 15.048 58.1118 15.108 57.8058 15.108C57.6318 15.108 57.4488 15.084 57.2568 15.036C57.0708 14.994 56.8968 14.922 56.7348 14.82C56.5788 14.712 56.4468 14.574 56.3388 14.406C56.2368 14.232 56.1858 14.019 56.1858 13.767C56.1858 13.443 56.2758 13.185 56.4558 12.993C56.6418 12.801 56.8788 12.654 57.1667 12.552C57.4548 12.45 57.7728 12.384 58.1208 12.354C58.4748 12.318 58.8198 12.3 59.1558 12.3V12.192C59.1558 11.922 59.0568 11.724 58.8588 11.598C58.6668 11.466 58.4358 11.4 58.1658 11.4C57.9378 11.4 57.7188 11.448 57.5088 11.544C57.2988 11.64 57.1248 11.757 56.9868 11.895L56.4288 11.238C56.6748 11.01 56.9568 10.839 57.2748 10.725C57.5988 10.611 57.9258 10.554 58.2558 10.554C58.6398 10.554 58.9548 10.608 59.2008 10.716C59.4528 10.824 59.6508 10.965 59.7948 11.139C59.9388 11.313 60.0378 11.508 60.0918 11.724C60.1518 11.94 60.1818 12.156 60.1818 12.372V15H59.1738V14.451ZM59.1558 13.029H58.9128C58.7388 13.029 58.5558 13.038 58.3638 13.056C58.1718 13.068 57.9948 13.101 57.8328 13.155C57.6708 13.203 57.5358 13.275 57.4278 13.371C57.3198 13.461 57.2658 13.587 57.2658 13.749C57.2658 13.851 57.2868 13.938 57.3288 14.01C57.3768 14.076 57.4368 14.13 57.5088 14.172C57.5808 14.214 57.6618 14.244 57.7518 14.262C57.8418 14.28 57.9318 14.289 58.0218 14.289C58.3938 14.289 58.6758 14.19 58.8678 13.992C59.0598 13.794 59.1558 13.524 59.1558 13.182V13.029ZM61.44 10.68H62.466V11.373H62.484C62.58 11.157 62.745 10.968 62.979 10.806C63.219 10.638 63.501 10.554 63.825 10.554C64.107 10.554 64.347 10.605 64.545 10.707C64.749 10.803 64.914 10.932 65.04 11.094C65.172 11.256 65.268 11.442 65.328 11.652C65.388 11.862 65.418 12.078 65.418 12.3V15H64.338V12.606C64.338 12.48 64.329 12.348 64.311 12.21C64.293 12.072 64.254 11.949 64.194 11.841C64.134 11.727 64.05 11.634 63.942 11.562C63.84 11.49 63.702 11.454 63.528 11.454C63.354 11.454 63.204 11.49 63.078 11.562C62.952 11.628 62.847 11.715 62.763 11.823C62.685 11.931 62.625 12.057 62.583 12.201C62.541 12.339 62.52 12.48 62.52 12.624V15H61.44V10.68Z" fill="#9086CC"/>
</svg>
